# xmcd
#
# Track frame offsets: 
#        150
#        1325
#        9257
#        18465
#        29328
#        40491
#        58125
#        70650
#        78788
#        87097
#        102845
#        119404
#        127826
#        150331
#        165150
#        187641
#
# Disc length: 2591 seconds
#
# Revision: 1
# Processed by: cddbd v1.5.2PL0 Copyright (c) Steve Scherf et al.
# Submitted via: ExactAudioCopy v0.99pb4
#
DISCID=a80a1d10
DTITLE=Lunikoff - Die Lunikoff Verschwörung - Die Rückkehr des Unbegre
DTITLE=iflichen
DYEAR=2005
DGENRE=Rock
TTITLE0=Präludium in A
TTITLE1=Stuttgart-Stammheim-Blues
TTITLE2=Nr.1 in den Charts
TTITLE3=Was wird aus Deutschland
TTITLE4=Lynchlied
TTITLE5=Der letzte Ritter
TTITLE6=Vom Frühstück bis zum Abendbrot
TTITLE7=Eure Eltern sind Geschwister
TTITLE8=Bolle
TTITLE9=Die Jungs fürs Grobe
TTITLE10=Über Leichen
TTITLE11=Audacia
TTITLE12=Fels in der Brandung
TTITLE13=Totsaufsong
TTITLE14=Zeit zu Gehn
TTITLE15=Arische Kämpfer (Instrumental)
EXTD=
EXTT0=
EXTT1=
EXTT2=
EXTT3=
EXTT4=
EXTT5=
EXTT6=
EXTT7=
EXTT8=
EXTT9=
EXTT10=
EXTT11=
EXTT12=
EXTT13=
EXTT14=
EXTT15=
PLAYORDER=
